<svg width="197" height="139" viewBox="0 0 197 139" fill="none" xmlns="http://www.w3.org/2000/svg">
<path d="M192.615 22.3638C191.49 18.1779 189.297 14.3619 186.252 11.2957C183.208 8.22948 179.42 6.02011 175.264 4.88761C160.05 0.708786 98.8241 0.708786 98.8241 0.708786C98.8241 0.708786 37.5958 0.8356 22.3841 5.01442C18.2287 6.14711 14.4404 8.35656 11.3964 11.4228C8.35245 14.4889 6.15901 18.3049 5.03453 22.4906C0.432756 49.7194 -1.35256 91.2068 5.16042 117.345C6.28491 121.531 8.47835 125.347 11.5223 128.413C14.5663 131.479 18.3546 133.688 22.51 134.821C37.7229 139 98.95 139 98.95 139C98.95 139 160.177 139 175.39 134.821C179.545 133.688 183.334 131.479 186.378 128.413C189.422 125.347 191.615 121.531 192.74 117.345C197.592 90.0788 199.088 48.6167 192.614 22.365L192.615 22.3638Z" fill="#FF2222"/>
<path d="M79.3375 99.4899L130.13 69.8565L79.3375 40.2219V99.4899Z" fill="white"/>
</svg>
