<svg width="16" height="16" viewBox="0 0 16 16" fill="none" xmlns="http://www.w3.org/2000/svg">
<path d="M9.92059 1.20186C10.07 0.813046 10.5086 0.615626 10.8804 0.803331C11.8294 1.28238 12.6685 1.95909 13.3394 2.79107C14.1686 3.81934 14.7116 5.04833 14.9135 6.35377C15.1153 7.6592 14.9689 8.99479 14.489 10.2255C14.009 11.4562 13.2127 12.5383 12.1803 13.3625C11.148 14.1866 9.9164 14.7236 8.60999 14.9191C7.30358 15.1145 5.96872 14.9615 4.7404 14.4756C3.51208 13.9897 2.43385 13.188 1.61475 12.1517C0.952003 11.3131 0.477915 10.3451 0.220928 9.31351C0.120232 8.90932 0.409867 8.5254 0.822123 8.46578C1.23438 8.40616 1.61226 8.69404 1.72315 9.09555C1.93559 9.86473 2.30023 10.5863 2.79818 11.2163C3.45257 12.0442 4.31398 12.6847 5.29531 13.0729C6.27664 13.4612 7.34308 13.5834 8.38679 13.4272C9.43051 13.2711 10.4145 12.8421 11.2392 12.1836C12.0639 11.5252 12.7002 10.6607 13.0836 9.67745C13.467 8.69423 13.584 7.6272 13.4227 6.58427C13.2615 5.54133 12.8277 4.55947 12.1652 3.73797C11.6611 3.11287 11.0382 2.59749 10.3352 2.21998C9.9682 2.02293 9.77116 1.59068 9.92059 1.20186Z" fill="white"/>
</svg>
